<svg width="512" height="512" version="1.1" viewBox="0 0 135.47 135.47" xmlns="http://www.w3.org/2000/svg">
 <g>
  <path d="m49.395 7.0993-2.7772 19.775 20.268 17.007 2.7772-19.775zm67.299 82.719a29.22 16.404 40 0 0-0.19939-0.16596l-64.621-54.224-8.8437 10.539-17.025-14.286-2.7211 3.2429 17.025 14.286-9.524 11.35 64.858 54.423 6.65e-4 -7.9e-4a29.22 16.404 40 0 0 27.189 9.5956 29.22 16.404 40 0 0 6.6397-17.766 29.22 16.404 40 0 0-12.778-16.994zm-94.567-33.758-18.992 6.1688 20.268 17.007 18.992-6.1688z" fill="#ff0000" stroke-linejoin="round" stroke-width="4.1579"/>
 </g>
</svg>
