<svg viewBox="0 0 135.47 135.47" xmlns="http://www.w3.org/2000/svg"><path d="M15.63 124.74L125.21 15.16" fill="none" stroke="#0f0" stroke-linecap="round" stroke-linejoin="round" stroke-width="4.723"/><path d="M13.757 98.427a17.613 17.613 0 000 24.909l3.742-3.742a12.322 12.322 0 010-17.425 12.322 12.322 0 0117.426 0l3.742-3.742a17.613 17.613 0 00-24.91 0zM38.264 105.51a17.613 17.613 0 0017.013 4.559 17.613 17.613 0 0012.454-12.455 17.613 17.613 0 00-4.559-17.013l-3.741 3.742a12.322 12.322 0 013.189 11.902 12.322 12.322 0 01-8.713 8.713 12.322 12.322 0 01-11.902-3.19zM98.425 13.758a17.613 17.613 0 000 24.909l3.742-3.742a12.322 12.322 0 010-17.426 12.322 12.322 0 0117.426 0l3.742-3.742a17.613 17.613 0 00-24.91 0zM56.091 56.093a17.613 17.613 0 000 24.909l3.742-3.742a12.322 12.322 0 010-17.425 12.322 12.322 0 0117.426 0L81 56.093a17.613 17.613 0 00-24.91 0zM80.598 63.174a17.613 17.613 0 0017.013 4.559 17.613 17.613 0 0012.454-12.455 17.613 17.613 0 00-4.558-17.012l-3.742 3.741a12.322 12.322 0 013.189 11.902 12.322 12.322 0 01-8.713 8.713 12.322 12.322 0 01-11.902-3.19z" fill="#0f0"/></svg>