<svg viewBox="0 0 135.47 135.47" xmlns="http://www.w3.org/2000/svg"><g stroke="#c7c7c7" stroke-linecap="round" stroke-width="2.1167"><path transform="scale(.26458)" d="m160 72v32h-8v64h8v56h-8v64h8v56h-8v64h8v32h104v-24c20-16 39.06-20.872 64-20v-40c-25.314 0.98086-44-4-64-20v-40c20-16 39.06-20.872 64-20v-40c-25.314 0.98086-44-4-64-20v-40c20-16 39.06-20.872 64-20v-40c-25.314 0.98086-44-4-64-20v-24h-104zm-32 32v64h16v-64h-16zm208 12v40h56v-40h-56zm64 8v24h40c4 0 8-4 8-12s-4-12-8-12h-40zm-272 100v64h16v-64h-16zm208 12v40h56v-40h-56zm64 8v24h40c4 0 8-4 8-12s-4-12-8-12h-40zm-272 100v64h16v-64h-16zm208 12v40h56v-40h-56zm64 8v24h40c4 0 8-4 8-12s-4-12-8-12h-40z" fill="#ff0" stroke="#c7c7c7" stroke-linecap="round" stroke-linejoin="round" stroke-width="8.0003"/></g></svg>