<svg viewBox="0 0 135.47 135.47" xmlns="https://www.w3.org/2000/svg"><g fill="#c500ff" stroke-linejoin="round"><path d="M96.929 1.293L71.485 17.756l8.967 8.967-11.025 17.039 25.444-16.464-8.967-8.967zM12.438 15.518l9.317 28.84 10.982-6.341 13.604 15.059-9.317-28.837-10.982 6.34zm98.109 40.36l-5.36 11.492-19.78-4.532 24.172 18.278 5.36-11.493 19.78 4.533zm-92.76 20.906l2.203 12.488-18.804 7.634 30.286 1.108-2.202-12.488 18.804-7.634zm54.443 7.088l-11.399 28.08 12.488 2.202.742 20.28 11.4-28.08-12.489-2.202z"/><circle cx="64.294" cy="64.294" r="21.167"/></g></svg>