<svg viewBox="0 0 135.47 135.47" xmlns="http://www.w3.org/2000/svg"><path d="M58.208 17.991l15.874 11.642-2.116 23.283L43.39 32.808 63.5 61.383l-25.4 2.116-9.524-15.875 7.408 22.225 33.866 2.117 12.7-12.7L80.432 25.4 58.208 17.99z" fill="#00c995"/><path fill="none" d="M26.458 95.25h42.333v26.458H26.458z"/><path d="M77.258 71.967l6.35-6.35" fill="none" stroke="#00c995" stroke-linecap="round" stroke-width="4.233"/><path d="M77.258 110.07s-8.467-14.817 4.233-24.342c12.7-9.525 2.117-13.758 2.117-13.758" fill="none" stroke="#00c995" stroke-dasharray="8.46666625,8.46666625" stroke-linecap="round" stroke-width="4.233"/><path d="M131.23 122.77s-6.35-12.251-13.701-12.511c-5.35-.189-6.552.412-12.902 4.646-5.638 3.759-15.332 8.973-23.139.457" fill="none" stroke="#00c995" stroke-linecap="round" stroke-width="4.233"/></svg>