<svg width="512" height="512" version="1.1" viewBox="0 0 135.47 135.47" xmlns="http://www.w3.org/2000/svg">
 <g>
  <path transform="scale(.26458)" d="m310 70c-8.2952-0.092168-92.626 6.1289-100 10-8.5717 0.64518-107.34 63.122-110 70-2.5355 6.4887 1.0088 23.206-1.7773 49.574-3.3468 31.674-10.437 67.681-8.2227 70.426 4.0093 2.0738 24 2 30-2 10-4 40-78 40-78 2.3964 1.659 25.293 1.1638 30 0 2.5807 3.3181 66 50 110 50 24 2 63.69-5.9556 66-12 15.999-7.0789 31.259-99.874 28-106-2.6069-7.6904-73.032-51.355-84-52zm146 6-36 44v260l44 32 28-16v-288l-36-32zm-406 64c-8.1108 0.18434-26 12.129-26 16 0 0-0.92169 28.129 0 32 0.55301 8.8482 15.861 18.341 26 20 0 0 26.866 2.5807 30 0v-52c-0.55301-4.2398-22.811-16-30-16zm-3.0371 87.986c-0.36291-0.01334-0.68638-0.00937-0.96289 0.01367-3.5024-0.36867-19.631 7.6036-20 10-0.18434 1.659-0.73735 33.235 0 36-0.73735 2.212 9.4178 12.162 12 12 4.5696 0.0671 22.624-3.49 32-8 2.1068-4.387 1.106-41.604 0-44-3.1107-1.7282-17.593-5.8136-23.037-6.0137zm109.04 4.0137-12 44s49.99 0.73735 64 0c0 0 11.999-8.0007 11.73-23.316-0.22265-12.685-11.864-19.356-19.021-20.041-6.7094-0.64181-44.709-0.64258-44.709-0.64258zm238 12c-3.943-0.45621-95.931 22.045-98 24-12 10-51.712 86.451-64 112-6.5036 11.735-32.306 26.155-34 30-0.7169 2.6069-2.3077 7.2727 0 10 3.4542 1.3034 137.39 1.7512 142 0 20-4 46-22 50-40 4-10 5.9878-134.08 4-136zm-189.21 55.564c-35.339 0.02665-118.7 2.6383-120.79 4.4356-10 2-16 5.9991-18.629 11.152-2.0052 3.93-5.3711 14.848-5.3711 24.848s12.811 15.816 20 16c6.2675 0.18434 134.47-23.051 140-26 3.9195-5.3942 3.6927-27.241 0-30-1.4517-0.31107-7.05-0.4417-15.205-0.43555zm-6.7949 58.436s-93.76 19.604-98 22c-4.6084 0.36869-15.816 8.1566-16 10-0.36869 2.0277-0.85632 24.274 0 36-0.75971 2.7242 8.3133 12.184 12 12h24c3.8711-0.73735 79.816-45.788 80-48 0 0 5.6313-7.0506 6-10 0.18433-4.0554 0.73735-15.972 0-18-2.212-3.3181-8-4-8-4z" fill="#00d8ff"/>
 </g>
</svg>
