<svg width="512" height="512" version="1.1" viewBox="0 0 135.47 135.47" xmlns="http://www.w3.org/2000/svg">
 <g fill="#c500ff" stroke-linejoin="round">
  <path transform="scale(.26458)" d="m366.35 4.8867-96.168 62.225 33.891 33.891-41.668 64.398 96.166-62.227-33.891-33.889zm-319.34 53.766 35.215 109 41.508-23.965 51.418 56.916-35.215-108.99-41.508 23.965zm370.81 152.54-20.256 43.438-74.764-17.131 91.363 69.084 20.256-43.438 74.764 17.131zm-350.59 79.02 8.3223 47.199-71.07 28.852 114.47 4.1875-8.3242-47.199 71.07-28.852zm205.77 26.787-43.084 106.13 47.199 8.3242 2.8047 76.65 43.084-106.13-47.199-8.3242z" stroke-width="46.882"/>
  <circle cx="64.294" cy="64.294" r="21.167" stroke-width="4.7231"/>
 </g>
</svg>
