<svg width="512" height="512" version="1.1" viewBox="0 0 135.47 135.47" xmlns="http://www.w3.org/2000/svg">
 <g>
  <path d="m15.63 124.74 109.58-109.58" fill="none" stroke="#00ff00" stroke-linecap="round" stroke-linejoin="round" stroke-width="4.7231"/>
  <path d="m13.757 98.427a17.613 17.613 0 0 0 3.65e-4 24.909l3.7418-3.7418a12.322 12.322 0 0 1-3.65e-4 -17.425 12.322 12.322 0 0 1 17.426 0l3.7418-3.7418a17.613 17.613 0 0 0-24.909 0z" fill="#00ff00"/>
  <path d="m38.264 105.51a17.613 17.613 0 0 0 17.013 4.5585 17.613 17.613 0 0 0 12.454-12.454 17.613 17.613 0 0 0-4.5585-17.013l-3.7418 3.7418a12.322 12.322 0 0 1 3.1889 11.902 12.322 12.322 0 0 1-8.7124 8.7124 12.322 12.322 0 0 1-11.902-3.1889z" fill="#00ff00"/>
  <path d="m98.425 13.758a17.613 17.613 0 0 0 0 24.909l3.7418-3.7418a12.322 12.322 0 0 1 0-17.426 12.322 12.322 0 0 1 17.426 0l3.7418-3.7418a17.613 17.613 0 0 0-24.909 0z" fill="#00ff00"/>
  <path d="m56.091 56.093a17.613 17.613 0 0 0 3.65e-4 24.909l3.7418-3.7418a12.322 12.322 0 0 1-3.65e-4 -17.425 12.322 12.322 0 0 1 17.426-2e-6l3.7418-3.7418a17.613 17.613 0 0 0-24.909 1e-6z" fill="#00ff00"/>
  <path d="m80.598 63.174a17.613 17.613 0 0 0 17.013 4.5585 17.613 17.613 0 0 0 12.454-12.454 17.613 17.613 0 0 0-4.5584-17.013l-3.7418 3.7418a12.322 12.322 0 0 1 3.1889 11.902 12.322 12.322 0 0 1-8.7124 8.7124 12.322 12.322 0 0 1-11.902-3.1889z" fill="#00ff00"/>
 </g>
</svg>
