<svg viewBox="0 0 135.47 135.47" xmlns="http://www.w3.org/2000/svg"><path d="M82.02 18.52c-2.195-.024-24.507 1.622-26.458 2.646-2.268.171-28.4 16.701-29.104 18.521-.67 1.717.267 6.14-.47 13.116-.886 8.38-2.762 17.907-2.176 18.634 1.061.548 6.35.529 7.938-.53C34.395 69.85 42.333 50.27 42.333 50.27c.634.44 6.692.308 7.937 0 .683.878 17.462 13.23 29.104 13.23 6.35.528 16.851-1.577 17.462-3.176 4.233-1.873 8.27-26.424 7.409-28.045-.69-2.035-19.323-13.588-22.225-13.758zm38.628 1.588l-9.524 11.642v68.79l11.641 8.467 7.408-4.233v-76.2l-9.525-8.466zM13.23 37.041c-2.146.049-6.88 3.21-6.88 4.233 0 0-.243 7.443 0 8.467.147 2.341 4.197 4.853 6.88 5.292 0 0 7.108.682 7.937 0V41.274c-.146-1.121-6.035-4.233-7.937-4.233zm-.804 23.28a2.167 2.167 0 00-.254.003c-.927-.097-5.194 2.012-5.292 2.646-.049.439-.195 8.793 0 9.525-.195.585 2.492 3.218 3.175 3.175 1.21.018 5.986-.924 8.467-2.117.557-1.16.292-11.007 0-11.641-.823-.458-4.655-1.539-6.096-1.591zm28.85 1.061L38.1 73.024s13.227.195 16.933 0c0 0 3.175-2.117 3.104-6.169-.059-3.356-3.139-5.121-5.033-5.302-1.775-.17-11.829-.17-11.829-.17zm62.97 3.175c-1.043-.12-25.381 5.833-25.929 6.35-3.175 2.646-13.682 22.874-16.933 29.633-1.72 3.105-8.547 6.92-8.995 7.938-.19.69-.611 1.924 0 2.646.914.344 36.35.463 37.57 0 5.292-1.059 12.17-5.821 13.229-10.584 1.058-2.645 1.584-35.475 1.058-35.983zM54.185 79.26c-9.35.007-31.407.698-31.96 1.173-2.645.53-4.233 1.587-4.928 2.95-.53 1.04-1.421 3.93-1.421 6.575s3.39 4.185 5.291 4.233c1.658.05 35.578-6.099 37.041-6.879 1.037-1.427.977-7.207 0-7.937-.384-.082-1.865-.117-4.023-.115zm-1.799 15.46s-24.807 5.187-25.929 5.821c-1.219.098-4.184 2.158-4.233 2.646-.097.537-.226 6.423 0 9.525-.2.72 2.2 3.224 3.175 3.175h6.35c1.024-.195 21.118-12.115 21.166-12.7 0 0 1.49-1.865 1.588-2.646.049-1.073.195-4.226 0-4.762-.585-.878-2.117-1.058-2.117-1.058z" fill="#00d8ff"/></svg>