<svg xmlns="http://www.w3.org/2000/svg" xmlns:xlink="https://www.w3.org/1999/xlink" viewBox="0 0 512 512"><circle cy="255" cx="255" r="200" fill="none" stroke="#015aff" stroke-width="30" opacity=".989"/><path d="M154 79.33A-204-204 0 0052 256h126.037a77.157 78.834 44.384 0139.326-66.922L154 79.33z" id="a" fill="#015aff" fill-opacity="1" stroke-width="10" stroke-miterlimit="4" stroke-dasharray="none"/><path d="M358 79.33l-62.637 108.49a77.157 78.834 44.384 0138.62 66.502 77.157 78.834 44.384 01-.02 1.678H460A204 204 0 00358 79.33zM294.637 322.922A77.157 78.834 44.384 01256 334a77.157 78.834 44.384 01-39.363-9.82L154 432.67a204 204 0 00204 0l-63.363-109.748z" fill="#015aff"/><circle cy="256" cx="256" r="48" fill="#015aff"/><use xlink:href="#a"/></svg>